<svg width="20" height="20" viewBox="0 0 20 20" fill="none" xmlns="http://www.w3.org/2000/svg">
<path d="M9.9995 0C15.4997 0 20 4.50028 20 10.0005C20 15.4997 15.4997 20 9.9995 20C4.50027 20 0 15.4997 0 10.0005C0 4.50028 4.45023 0 9.9995 0ZM5.40013 14.4497C5.59932 14.749 5.94965 14.8501 6.25094 14.6509C8.60217 13.1995 11.552 12.8993 15.0523 13.699C15.4006 13.8011 15.7009 13.5509 15.801 13.2496C15.9021 12.8993 15.6519 12.601 15.3506 12.4999C11.552 11.6491 8.25084 12.0004 5.65137 13.6009C5.30104 13.7501 5.25099 14.1494 5.40013 14.4497ZM4.19899 11.7001C4.45023 12.0494 4.89965 12.1996 5.25099 11.9494C7.95055 10.3018 12.0494 9.79931 15.1994 10.8003C15.5978 10.9014 16.0502 10.7002 16.1493 10.3018C16.2504 9.8994 16.0492 9.44898 15.6499 9.34888C12.0004 8.24984 7.49912 8.80036 4.40018 10.7012C4.09989 10.8503 3.94975 11.3498 4.19899 11.7001ZM4.0999 8.89845C7.29994 6.99965 12.65 6.79946 15.7009 7.75136C15.9329 7.81822 16.1818 7.79312 16.3958 7.68128C16.6098 7.56943 16.7724 7.37945 16.85 7.15079C16.9181 6.9185 16.8936 6.66889 16.7819 6.45417C16.6702 6.23946 16.4797 6.07625 16.2504 5.9987C12.7001 4.9487 6.84951 5.14789 3.14899 7.35098C2.69957 7.60022 2.54942 8.20079 2.79966 8.65022C3.0499 9.00055 3.64947 9.14869 4.0999 8.89845Z" fill="#AEAEAE"/>
</svg>
