<svg width="20" height="21" viewBox="0 0 20 21" fill="none" xmlns="http://www.w3.org/2000/svg">
<path d="M4.04561 2.28849C5.52115 1.19268 7.26931 0.525367 9.09832 0.359745V3.38355C7.70578 3.56449 6.39974 4.16108 5.34996 5.09578C4.30018 6.03048 3.5552 7.26006 3.21186 8.62471C2.86852 9.98936 2.94269 11.426 3.42473 12.7478C3.90677 14.0697 4.77439 15.2156 5.91482 16.0367C7.05525 16.8578 8.41575 17.3161 9.81949 17.352C11.2232 17.388 12.6053 16.9998 13.786 16.2381C14.9668 15.4764 15.8916 14.3763 16.4403 13.0808C16.989 11.7854 17.1363 10.3544 16.8628 8.97401L19.4047 6.90705C20.0886 8.79266 20.183 10.853 19.6893 12.8036C19.1621 14.8859 17.9812 16.7432 16.3208 18.1016C14.6604 19.4601 12.6084 20.2479 10.4673 20.3487C8.32632 20.4495 6.20964 19.8581 4.42946 18.6616C2.64929 17.4652 1.29985 15.727 0.580164 13.7035C-0.139381 11.6799 -0.190981 9.47801 0.432977 7.42271C1.05693 5.36742 2.32341 3.56752 4.04561 2.28849Z" fill="#AEAEAE"/>
<path d="M17.5348 3.73229C17.5348 3.73229 16.217 5.76332 15.8036 6.42138C15.186 5.50425 14.3617 4.74568 13.3974 4.20705V10.3401C13.3974 12.2218 11.8754 13.7471 9.998 13.7471C8.12066 13.7471 6.59863 12.2218 6.59863 10.3401C6.59863 8.4584 8.12066 6.93305 9.998 6.93305C10.675 6.93195 11.3367 7.13441 11.8976 7.51425V0.500004C14.1047 0.925517 16.1022 2.11089 17.5348 3.73229Z" fill="#AEAEAE" stroke="#AEAEAE" stroke-miterlimit="10" stroke-linecap="round" stroke-linejoin="round"/>
</svg>
